<?xml version="1.0" encoding="UTF-8"?>
<svg id="Layer_1" data-name="Layer 1" xmlns="http://www.w3.org/2000/svg" viewBox="0 0 39 41">
  <defs>
    <style>
      .cls-1 {
        fill: #fff;
      }
    </style>
  </defs>
  <path class="cls-1" d="M30.3,30.44c1.12,1.49,.25,2.71-.25,3.96-.28,.73-.53,1.48-.89,2.15-.49,.92,.04,1.62,.36,2.37,.06,.15,.42,.22,.64,.22,.6,.04,1.19,.02,1.8,.02,.68,0,1.46,0,1.47,.9,.02,.9-.72,.95-1.42,.93H6.31c-.72,0-1.55,.15-1.68-.88-.09-.67,.45-.95,1.72-.95h.76c1.66,0,2.4-1.1,1.78-2.67-.38-.92-.79-1.83-1.1-2.78-.28-.88-.43-1.77-.7-2.84H1.17c-.64,0-1.15-.19-1.15-.92s.53-.92,1.17-.92c1.32,0,2.65,.02,3.97,0,1.04-.02,2.31,.28,3.02-.19,.7-.45,.83-1.74,1.19-2.65,1.25-3.17,2.42-6.41,3.8-9.54,.57-1.27,.66-2.5,.81-3.81,.11-1.03,0-1.94-.13-2.93-.23-1.68,.36-3.1,1.57-4.31,.26-.26,.42-.73,.47-1.1,.08-.52,0-1.06,.04-1.59C16.01,1.25,17.3,.02,18.92,0c1.64-.02,2.93,1.14,3.08,2.78,.02,.19,.04,.37,.02,.56-.09,1.08,.13,1.96,.96,2.84,1.25,1.29,1.44,2.97,.93,4.72-.09,.35,.04,.77,.08,1.16,.04,.3,.15,.62,.13,.92-.02,1.21,.15,2.32,.66,3.47,1.61,3.72,3.02,7.51,4.48,11.28,.25,.65,.55,.9,1.29,.88,1.95-.06,3.91-.02,5.86-.02,.7,0,1.63-.17,1.63,.9,0,1.12-.95,.95-1.68,.95h-6.05Zm-19.81,8.63H27.56c-1.08-2.75-2.1-5.38-3.18-7.99-.11-.28-.49-.63-.74-.62-.59,.04-1.27-.37-1.74,.47-1.25,2.24-3.95,2.41-5.56,.43-.15-.21-.4-.43-.62-.47-1.61-.3-1.97-.07-2.57,1.42-.42,1.05-.83,2.07-1.25,3.12-.45,1.18-.93,2.35-1.42,3.64Zm4.03-10.16c.81,.24,1.25,.15,1.55-.65,.42-1.18,1.38-1.83,2.65-1.94,1.34-.11,2.46,.37,3.08,1.55,.38,.69,.78,.86,1.57,.6-1.42-3.6-2.84-7.17-4.33-10.94-1.57,3.92-3.02,7.62-4.52,11.39Zm4.4-17.33c.53,0,1.08-.06,1.61,.02,.87,.13,1.27-.34,1.53-1.03,.55-1.34,.13-2.88-1-3.77-1.13-.9-2.67-.99-3.88-.22-1.23,.77-1.81,2.26-1.44,3.64,.3,1.12,.64,1.36,1.83,1.38,.45-.02,.91-.02,1.34-.02Zm-1.76,5.57c-.42-.02-.68-.02-.91-.06-1.02-.19-1.49,.28-1.81,1.21-.7,2-1.53,3.94-2.29,5.92-.61,1.55-1.21,3.12-1.85,4.76,.36,.02,.6,.04,.83,.07,.98,.15,1.51-.17,1.83-1.18,.62-1.85,1.42-3.66,2.14-5.47,.66-1.74,1.32-3.44,2.06-5.27Zm3.69-.06c1.36,3.42,2.63,6.63,3.89,9.82q.72,1.81,2.85,1.61c-1.46-3.7-2.89-7.36-4.35-11.02-.08-.19-.34-.37-.55-.39-.55-.06-1.12-.02-1.85-.02Zm-5.05-1.92h6.43v-1.68h-6.43v1.68Zm10.34,15.28c.59,1.48,1.13,2.82,1.74,4.35,.38-.93,.7-1.64,.96-2.37,.25-.69-.3-1.92-.87-1.96-.59-.06-1.13-.02-1.83-.02Zm-7.11-2.32c-.74,0-1.4,.62-1.42,1.34,0,.73,.62,1.36,1.38,1.36s1.4-.6,1.4-1.34c.02-.71-.62-1.34-1.36-1.36Zm-8.87,6.67c.55-1.42,1.02-2.61,1.55-3.94h-1.27c-1.15,0-1.59,.65-1.17,1.74,.25,.67,.53,1.33,.89,2.2ZM17.81,4.24h2.33c.04-.78,.32-1.66-.55-2.19-.3-.19-.91-.19-1.23,0-.89,.5-.53,1.4-.55,2.19Z"/>
  <path class="cls-1" d="M32.52,22.15c0-1.76,1.44-3.21,3.21-3.23,1.81-.02,3.29,1.46,3.27,3.27-.02,1.76-1.47,3.19-3.25,3.19-1.76-.02-3.21-1.48-3.23-3.23Zm4.63-.02c0-.75-.64-1.36-1.4-1.36s-1.36,.64-1.36,1.38,.64,1.38,1.38,1.36c.76,0,1.4-.65,1.38-1.38Z"/>
  <path class="cls-1" d="M7.39,11.54c.02,1.53-1.27,2.8-2.82,2.78-1.51-.02-2.76-1.23-2.76-2.75-.02-1.49,1.21-2.75,2.72-2.78,1.53-.04,2.84,1.21,2.85,2.75Zm-1.49-.04c-.62-.39-1-.82-1.3-.78-.34,.06-.81,.5-.87,.84-.09,.54,.36,.99,.93,.88,.36-.06,.66-.47,1.25-.93Z"/>
  <path class="cls-1" d="M0,21.63v-1.74H3.59v1.74H0Z"/>
  <path class="cls-1" d="M33.38,4.16h-3.61v-1.72h3.61v1.72Z"/>
  <path class="cls-1" d="M4.63,19.87h1.78v1.74h-1.78v-1.74Z"/>
  <path class="cls-1" d="M36.2,2.47v1.66h-1.74v-1.66h1.74Z"/>
  <path class="cls-1" d="M9.06,7.08c-.25-.34-.72-.71-.66-.97,.08-.35,.53-.82,.87-.9,.25-.06,.83,.5,.85,.8,.02,.34-.42,.71-.64,1.08-.15,0-.28-.02-.42-.02Z"/>
  <path class="cls-1" d="M3.44,36.53c-.23-.37-.66-.75-.64-1.1,.02-.3,.55-.78,.87-.8,.3,0,.83,.5,.85,.8,.02,.35-.4,.73-.64,1.1h-.43Z"/>
  <path class="cls-1" d="M36.01,36.53c-.23-.35-.59-.69-.64-1.06-.08-.58,.38-1.01,.93-.86,.34,.09,.78,.58,.79,.92,.02,.32-.43,.67-.7,1.01h-.38Z"/>
  <path class="cls-1" d="M36.35,9.04c-.38,.22-.76,.65-1.12,.62-.3-.02-.74-.52-.81-.88-.11-.56,.36-.95,.93-.86,.36,.07,.68,.47,1,.71,.02,.15,.02,.28,0,.41Z"/>
  <path class="cls-1" d="M28.77,13.04c.43,.6,.89,.93,.87,1.25-.02,.34-.45,.82-.79,.9-.57,.15-1.02-.3-.95-.86,.04-.35,.43-.67,.87-1.29Z"/>
  <path class="cls-1" d="M5.92,25.32c-.6,.45-.93,.84-1.29,.9-.57,.09-1.02-.35-.91-.9,.08-.34,.57-.77,.91-.82,.3-.02,.66,.41,1.29,.82Z"/>
  <path class="cls-1" d="M19.24,33.5c.23,.35,.66,.73,.62,1.05-.04,.34-.49,.82-.83,.88-.55,.09-1-.34-.89-.92,.08-.37,.45-.67,.7-1.01h.4Z"/>
  <path class="cls-1" d="M19.22,36.29c.23,.34,.68,.69,.64,1.01-.04,.34-.47,.82-.81,.88-.55,.11-1-.3-.91-.9,.06-.37,.43-.67,.68-1.01,.13,.02,.26,.02,.4,.02Z"/>
</svg>